<svg xmlns="http://www.w3.org/2000/svg" width="512" height="512" viewBox="0 0 512 512" fill="none">
  <rect width="512" height="512" rx="96" fill="#000000"/>
  <path d="M256 72C170 72 102 144 76 240C64 286 66 334 90 366C122 408 176 404 226 390L226 402C187 414 133 423 96 391C67 366 58 317 70 238C98 132 174 52 256 52C338 52 414 132 442 238C454 317 445 366 416 391C379 423 325 414 286 402V390C336 404 390 408 422 366C446 334 448 286 436 240C410 144 342 72 256 72Z" fill="#F1F1F1"/>
  <path d="M256 162C248 178 236 192 224 208C216 218 211 230 211 243C211 257 223 268 236 268C245 268 252 264 256 258C260 264 267 268 276 268C289 268 301 257 301 243C301 230 296 218 288 208C276 192 264 178 256 162Z" fill="#F1F1F1"/>
  <path d="M256 226C239 226 226 238 222 256L195 366C192 384 196 405 207 420C217 434 232 442 248 442H264C280 442 295 434 305 420C316 405 320 384 317 366L290 256C286 238 273 226 256 226Z" fill="#F1F1F1"/>
  <path d="M90 318C120 358 178 379 236 363V375C176 391 118 373 82 330L90 318Z" fill="#F1F1F1"/>
  <path d="M422 318L430 330C394 373 336 391 276 375V363C334 379 392 358 422 318Z" fill="#F1F1F1"/>
</svg>
